<svg xmlns="http://www.w3.org/2000/svg" version="1.1" xmlns:xlink="http://www.w3.org/1999/xlink" xmlns:svgjs="http://svgjs.dev/svgjs" viewBox="0 0 1422 800"><defs><linearGradient x1="50%" y1="0%" x2="50%" y2="100%" id="oooscillate-grad"><stop stop-color="hsl(206, 75%, 49%)" stop-opacity="1" offset="0%"></stop><stop stop-color="hsl(331, 90%, 56%)" stop-opacity="1" offset="100%"></stop></linearGradient></defs><g stroke-width="3" stroke="url(#oooscillate-grad)" fill="none" stroke-linecap="round"><path d="M 0 1769 Q 355.5 -100 711 400 Q 1066.5 900 1422 1769" opacity="0.33"></path><path d="M 0 1740 Q 355.5 -100 711 400 Q 1066.5 900 1422 1740" opacity="0.74"></path><path d="M 0 1711 Q 355.5 -100 711 400 Q 1066.5 900 1422 1711" opacity="0.53"></path><path d="M 0 1682 Q 355.5 -100 711 400 Q 1066.5 900 1422 1682" opacity="0.83"></path><path d="M 0 1653 Q 355.5 -100 711 400 Q 1066.5 900 1422 1653" opacity="0.53"></path><path d="M 0 1624 Q 355.5 -100 711 400 Q 1066.5 900 1422 1624" opacity="0.43"></path><path d="M 0 1595 Q 355.5 -100 711 400 Q 1066.5 900 1422 1595" opacity="0.69"></path><path d="M 0 1566 Q 355.5 -100 711 400 Q 1066.5 900 1422 1566" opacity="0.93"></path><path d="M 0 1537 Q 355.5 -100 711 400 Q 1066.5 900 1422 1537" opacity="0.40"></path><path d="M 0 1508 Q 355.5 -100 711 400 Q 1066.5 900 1422 1508" opacity="0.19"></path><path d="M 0 1479 Q 355.5 -100 711 400 Q 1066.5 900 1422 1479" opacity="0.52"></path><path d="M 0 1450 Q 355.5 -100 711 400 Q 1066.5 900 1422 1450" opacity="0.77"></path><path d="M 0 1421 Q 355.5 -100 711 400 Q 1066.5 900 1422 1421" opacity="0.35"></path><path d="M 0 1392 Q 355.5 -100 711 400 Q 1066.5 900 1422 1392" opacity="0.82"></path><path d="M 0 1363 Q 355.5 -100 711 400 Q 1066.5 900 1422 1363" opacity="0.88"></path><path d="M 0 1334 Q 355.5 -100 711 400 Q 1066.5 900 1422 1334" opacity="0.60"></path><path d="M 0 1305 Q 355.5 -100 711 400 Q 1066.5 900 1422 1305" opacity="0.32"></path><path d="M 0 1276 Q 355.5 -100 711 400 Q 1066.5 900 1422 1276" opacity="0.42"></path><path d="M 0 1247 Q 355.5 -100 711 400 Q 1066.5 900 1422 1247" opacity="0.12"></path><path d="M 0 1218 Q 355.5 -100 711 400 Q 1066.5 900 1422 1218" opacity="0.22"></path><path d="M 0 1189 Q 355.5 -100 711 400 Q 1066.5 900 1422 1189" opacity="0.10"></path><path d="M 0 1160 Q 355.5 -100 711 400 Q 1066.5 900 1422 1160" opacity="0.30"></path><path d="M 0 1131 Q 355.5 -100 711 400 Q 1066.5 900 1422 1131" opacity="0.34"></path><path d="M 0 1102 Q 355.5 -100 711 400 Q 1066.5 900 1422 1102" opacity="0.37"></path><path d="M 0 1073 Q 355.5 -100 711 400 Q 1066.5 900 1422 1073" opacity="0.40"></path><path d="M 0 1044 Q 355.5 -100 711 400 Q 1066.5 900 1422 1044" opacity="0.50"></path><path d="M 0 1015 Q 355.5 -100 711 400 Q 1066.5 900 1422 1015" opacity="0.88"></path><path d="M 0 986 Q 355.5 -100 711 400 Q 1066.5 900 1422 986" opacity="0.14"></path><path d="M 0 957 Q 355.5 -100 711 400 Q 1066.5 900 1422 957" opacity="0.62"></path><path d="M 0 928 Q 355.5 -100 711 400 Q 1066.5 900 1422 928" opacity="0.45"></path><path d="M 0 899 Q 355.5 -100 711 400 Q 1066.5 900 1422 899" opacity="0.82"></path><path d="M 0 870 Q 355.5 -100 711 400 Q 1066.5 900 1422 870" opacity="0.59"></path><path d="M 0 841 Q 355.5 -100 711 400 Q 1066.5 900 1422 841" opacity="0.64"></path><path d="M 0 812 Q 355.5 -100 711 400 Q 1066.5 900 1422 812" opacity="0.91"></path><path d="M 0 783 Q 355.5 -100 711 400 Q 1066.5 900 1422 783" opacity="0.36"></path><path d="M 0 754 Q 355.5 -100 711 400 Q 1066.5 900 1422 754" opacity="0.59"></path><path d="M 0 725 Q 355.5 -100 711 400 Q 1066.5 900 1422 725" opacity="0.95"></path><path d="M 0 696 Q 355.5 -100 711 400 Q 1066.5 900 1422 696" opacity="0.11"></path><path d="M 0 667 Q 355.5 -100 711 400 Q 1066.5 900 1422 667" opacity="0.15"></path><path d="M 0 638 Q 355.5 -100 711 400 Q 1066.5 900 1422 638" opacity="0.68"></path><path d="M 0 609 Q 355.5 -100 711 400 Q 1066.5 900 1422 609" opacity="0.81"></path><path d="M 0 580 Q 355.5 -100 711 400 Q 1066.5 900 1422 580" opacity="0.87"></path><path d="M 0 551 Q 355.5 -100 711 400 Q 1066.5 900 1422 551" opacity="0.82"></path><path d="M 0 522 Q 355.5 -100 711 400 Q 1066.5 900 1422 522" opacity="0.39"></path><path d="M 0 493 Q 355.5 -100 711 400 Q 1066.5 900 1422 493" opacity="0.64"></path><path d="M 0 464 Q 355.5 -100 711 400 Q 1066.5 900 1422 464" opacity="0.50"></path><path d="M 0 435 Q 355.5 -100 711 400 Q 1066.5 900 1422 435" opacity="0.69"></path><path d="M 0 406 Q 355.5 -100 711 400 Q 1066.5 900 1422 406" opacity="0.56"></path><path d="M 0 377 Q 355.5 -100 711 400 Q 1066.5 900 1422 377" opacity="0.58"></path><path d="M 0 348 Q 355.5 -100 711 400 Q 1066.5 900 1422 348" opacity="0.76"></path><path d="M 0 319 Q 355.5 -100 711 400 Q 1066.5 900 1422 319" opacity="0.79"></path><path d="M 0 290 Q 355.5 -100 711 400 Q 1066.5 900 1422 290" opacity="0.36"></path><path d="M 0 261 Q 355.5 -100 711 400 Q 1066.5 900 1422 261" opacity="0.16"></path><path d="M 0 232 Q 355.5 -100 711 400 Q 1066.5 900 1422 232" opacity="0.37"></path><path d="M 0 203 Q 355.5 -100 711 400 Q 1066.5 900 1422 203" opacity="0.19"></path><path d="M 0 174 Q 355.5 -100 711 400 Q 1066.5 900 1422 174" opacity="0.68"></path><path d="M 0 145 Q 355.5 -100 711 400 Q 1066.5 900 1422 145" opacity="0.76"></path><path d="M 0 116 Q 355.5 -100 711 400 Q 1066.5 900 1422 116" opacity="0.50"></path><path d="M 0 87 Q 355.5 -100 711 400 Q 1066.5 900 1422 87" opacity="0.81"></path><path d="M 0 58 Q 355.5 -100 711 400 Q 1066.5 900 1422 58" opacity="0.92"></path></g></svg>